<svg xmlns="http://www.w3.org/2000/svg" xmlns:xlink="http://www.w3.org/1999/xlink" viewBox="0 0 24 24"><defs><clipPath id="a"><rect x="6.17" y="6.17" width="11.66" height="11.66" style="fill:none"/></clipPath></defs><g style="clip-path:url(#a)"><path d="M16.71,14.21a2.5,2.5,0,0,1-2.5,2.5H9.79a2.5,2.5,0,0,1-2.5-2.5V9.79a2.5,2.5,0,0,1,2.5-2.5h4.42a2.5,2.5,0,0,1,2.5,2.5Zm-2.5-8H9.79A3.62,3.62,0,0,0,6.17,9.79v4.42a3.62,3.62,0,0,0,3.62,3.62h4.42a3.62,3.62,0,0,0,3.62-3.62V9.79a3.62,3.62,0,0,0-3.62-3.62" style="fill:#231f20"/><path d="M12,14a2,2,0,1,1,2-2,2,2,0,0,1-2,2m0-5.16A3.14,3.14,0,1,0,15.14,12,3.15,3.15,0,0,0,12,8.86" style="fill:#231f20"/><path d="M14.88,8.18a.69.69,0,1,0,.69.69.69.69,0,0,0-.69-.69" style="fill:#231f20"/></g></svg>