<svg xmlns="http://www.w3.org/2000/svg" xmlns:xlink="http://www.w3.org/1999/xlink" viewBox="0 0 248 248"><defs><clipPath id="a"><rect x="20.67" y="37.48" width="206.67" height="173.04" style="fill:none"/></clipPath></defs><rect x="-5.87" y="-3.76" width="257.31" height="254.95" style="fill:#e71e25"/><g style="clip-path:url(#a)"><path d="M140.82,199.7H111.18V48.28h29.64a75.71,75.71,0,1,1,0,151.42m-40.44-80.06H67.14a35.68,35.68,0,0,1,0-71.36h33.24Zm0,10.8V199.7H38.88C45.8,181.93,59,148,65.68,130.4m75.63-92.91H67.14a46.48,46.48,0,0,0-12.42,91.26s0,0,0,0c-13.55,35.76-24.12,65-28.13,76.22a4.09,4.09,0,0,0,3.74,5.51l109.84,0c50.93,1.09,89.16-40.62,87.05-90.23a86.62,86.62,0,0,0-85.94-82.78" style="fill:#fff"/><path d="M158.41,121.26a5.45,5.45,0,1,0,5.45,5.45,5.45,5.45,0,0,0-5.45-5.45" style="fill:#fff"/><path d="M71.37,78.52A5.44,5.44,0,1,0,76.81,84a5.44,5.44,0,0,0-5.44-5.44" style="fill:#fff"/></g></svg>