<svg xmlns="http://www.w3.org/2000/svg" viewBox="0 0 565 565"><rect x="-87.54" y="-57.65" width="739.82" height="706.51" style="fill:#e52227"/><path d="M315.07,119.7H175.51a87.46,87.46,0,0,0-23.38,171.73.07.07,0,0,1,.05.09c-25.49,67.3-43.29,122.25-50.85,143.44a7.7,7.7,0,0,0,7,10.36l204.61,0c95.84,2.06,167.78-76.43,163.82-169.78C473.14,189.26,402.07,120.18,315.07,119.7Zm-77,174.91V425H122.33c13-33.43,37.85-97.33,50.42-130.41m65.31-20.25H175.51a67.14,67.14,0,1,1,0-134.28h62.55ZM314.15,425H258.38V140h55.77c78.56,0,142.47,63.91,142.47,142.47S392.71,425,314.15,425Z" style="fill:#fff"/><circle cx="347.26" cy="287.59" r="10.24" style="fill:#fff"/><circle cx="183.45" cy="207.15" r="10.24" style="fill:#fff"/><path d="M409.43,432h-5.14v-1.37H416V432h-5.14v13.19h-1.46Z" style="fill:#fff"/><path d="M431.14,432.72l-5.43,8h-.41l-5.46-8.09v12.52h-1.45V430.58h1.79l5.32,8,5.27-8h1.83v14.56h-1.46Z" style="fill:#fff"/></svg>