<svg xmlns="http://www.w3.org/2000/svg" viewBox="0 0 565 505.74"><rect x="-0.32" y="-3.98" width="565.38" height="612.59" style="fill:#e52227"/><path d="M322.91,89.66H183.35A87.45,87.45,0,0,0,160,261.37s.07.06.05.1c-25.49,67.3-43.29,122.25-50.84,143.44a7.7,7.7,0,0,0,7,10.36l204.61,0c95.85,2.06,167.78-76.43,163.82-169.78C481,159.22,409.92,90.14,322.91,89.66Zm-77,174.91V394.91H130.17c13-33.43,37.85-97.33,50.42-130.41m65.31-20.25H183.35a67.14,67.14,0,0,1,0-134.28H245.9ZM322,394.91H266.22V110H322c78.55,0,142.46,63.91,142.46,142.47S400.55,394.91,322,394.91Z" style="fill:#fff"/><circle cx="355.1" cy="257.55" r="10.24" style="fill:#fff"/><circle cx="191.3" cy="177.11" r="10.24" style="fill:#fff"/><path d="M417.27,401.91h-5.14v-1.38h11.74v1.38h-5.14V415.1h-1.46Z" style="fill:#fff"/><path d="M439,402.68l-5.43,8h-.41l-5.46-8.1V415.1h-1.45V400.53H428l5.32,8,5.27-8h1.83V415.1H439Z" style="fill:#fff"/></svg>