<svg xmlns="http://www.w3.org/2000/svg" viewBox="0 0 565 608.43"><rect x="-0.32" y="-3.98" width="565.38" height="612.59" style="fill:#e52227"/><path d="M326.06,99.9H173A95.9,95.9,0,0,0,147.38,288.2a.07.07,0,0,1,.05.1C119.48,362.11,100,422.37,91.67,445.6,89.74,451,93.63,457,99.39,457l224.38-.05c105.1,2.26,184-83.81,179.64-186.18C499.39,176.18,421.47,100.43,326.06,99.9ZM241.6,291.71V434.64H114.69C129,398,156.2,327.91,170,291.63m71.61-22.21H173a73.63,73.63,0,0,1,0-147.25H241.6Zm83.45,165.22H263.89V122.17h61.16c86.15,0,156.24,70.09,156.24,156.24S411.2,434.64,325.05,434.64Z" style="fill:#fff"/><circle cx="361.36" cy="284.01" r="11.23" style="fill:#fff"/><circle cx="181.73" cy="195.8" r="11.23" style="fill:#fff"/><path d="M429.54,442.31H423.9v-1.5h12.87v1.5h-5.64v14.47h-1.59Z" style="fill:#fff"/><path d="M453.35,443.16l-6,8.76h-.46l-6-8.87v13.73h-1.59v-16h2l5.84,8.81,5.77-8.81h2v16h-1.59Z" style="fill:#fff"/></svg>