<svg xmlns="http://www.w3.org/2000/svg" viewBox="0 0 1080 385.93"><path d="M438.74,219.16h-7.15L407.24,192.5H388v26.66h-5.43V148.72h31c15.29,0,23,11,23.14,21.94.1,11.47-7.44,21.53-22.84,21.53ZM388,187.36h25c12.28,0,17.71-6.94,17.81-16.8.11-8.26-5.53-16.81-17.2-16.81H388Z"/><path d="M470.44,181.22H511.7v4.93H470.44v27.78h44.48v5.23H465.11V148.72h48.6v5.13H470.44Z"/><path d="M547.93,194.81v24.35H542.5V148.72h30.89c30.6,0,30.6,46.09,0,46.09Zm0-41.06v36.13h25.46c23.45,0,23.45-36.13,0-36.13Z"/><path d="M627.34,181.22H668.6v4.93H627.34v27.78h44.48v5.23H622V148.72h48.61v5.13H627.34Z"/><path d="M755.36,219.16l-7.75-17.3H705.54l-7.65,17.3h-5.84l31.6-70.44h5.94l31.6,70.44Zm-9.87-22.34L726.57,154l-18.92,42.87Z"/><path d="M796,153.65H770.56v-4.83h56.35v4.83H801.45v65.51H796Z"/><path d="M855.8,181.22h41.26v4.93H855.8v27.78h44.48v5.23H850.47V148.72h48.61v5.13H855.8Z"/><path d="M984,219.16h-7.15L952.52,192.5H933.29v26.66h-5.43V148.72h31c15.29,0,23,11,23.14,21.94.1,11.47-7.44,21.53-22.84,21.53Zm-50.73-31.8h25c12.28,0,17.72-6.94,17.82-16.8.1-8.26-5.54-16.81-17.21-16.81H933.29Z"/><path d="M442.16,270.36c.4,17.91-11.07,36-35.73,36H382.58V235.94h23.85C430.28,235.94,441.75,253.05,442.16,270.36ZM388,241.07v60.09h18.42c20.93,0,30.59-15.7,30.29-30.8-.3-14.69-10-29.29-30.29-29.29Z"/><path d="M475.07,268.45h41.26v4.93H475.07v27.78h44.48v5.23H469.74V235.94h48.6v5.13H475.07Z"/><path d="M590.6,249.53c-5.13-8.25-13.38-9.46-21.33-9.56-8.25,0-21.34,3-21.34,14.29,0,8.95,9.67,11.07,21.54,13.28,13.59,2.62,27.68,5,27.68,20.23-.1,15.9-16.11,19.73-27.88,19.73-11,0-23.45-4.53-28.88-15.3l4.83-2.42c4.32,8.56,15.39,12.78,24,12.78s22.44-2.41,22.44-14.89c.1-10.57-11.57-12.88-23.15-15.1-12.88-2.51-26.06-5.13-26.06-18.11-.3-14.89,15.2-19.53,26.77-19.53,10.06,0,18.82,1.61,25.76,12Z"/><path d="M624.12,306.39V235.94h5.33v70.45Z"/><path d="M716,248.92a32.79,32.79,0,0,0-22.65-9c-20.63,0-31.2,15.09-31.1,31.4,0,16.6,10.57,30.89,31.1,30.89A31.75,31.75,0,0,0,714.8,294V274.28H690.24v-4.72h29.69v26.36c-7.35,7.35-16.1,11.38-26.57,11.38-24,0-36.33-16.71-36.33-35.93-.1-22,14.9-36.44,36.33-36.44a36.68,36.68,0,0,1,25.76,10.57Z"/><path d="M750.73,235.94l47.4,58.27V235.94h5.33v70.45h-2.11l-47.5-58.17v58.17h-5.44V235.94Z"/><circle cx="1012.69" cy="213.01" r="6.15"/><path d="M221.52,106.81H125.19a60.36,60.36,0,0,0-16.14,118.53.06.06,0,0,1,0,.07c-17.6,46.45-31.51,83.49-36.73,98.11a5.32,5.32,0,0,0,4.86,7.15c24.21,0,142.86.87,142.86.87,64.49,0,115.81-52.75,113.07-117.19A112.5,112.5,0,0,0,221.52,106.81ZM168.36,227.54v90H88.48c9-23.07,26.13-67.18,34.81-90m45.07-14H125.19a46.34,46.34,0,0,1,0-92.68h43.17Zm52.53,104h-38.5V120.83h38.5a98.34,98.34,0,1,1,0,196.67Z"/><circle cx="243.74" cy="222.69" r="7.07"/><circle cx="130.67" cy="167.17" r="7.07"/><path d="M827.94,290.51h-6.19v-1.65h14.13v1.65H829.7v15.88h-1.76Z"/><path d="M854.08,291.44l-6.54,9.61H847l-6.56-9.74v15.08h-1.76V288.86h2.15l6.42,9.66,6.34-9.66h2.2v17.53h-1.75Z"/></svg>