<svg xmlns="http://www.w3.org/2000/svg" xmlns:xlink="http://www.w3.org/1999/xlink" viewBox="0 0 87.75 80.34"><defs><clipPath id="a"><rect x="1.22" width="86.53" height="80.13" style="fill:none"/></clipPath></defs><g style="clip-path:url(#a)"><path d="M81.75,2.53A1.26,1.26,0,0,1,83,3.92a1.18,1.18,0,0,1-1.2,1.3H79.44V2.53ZM86.64,11,83.73,7.23A3.36,3.36,0,0,0,86.1,3.86c0-2-1.49-3.86-4.35-3.86H76.28V11.2h3.16V7.57h1.11l2.61,3.63h3.48ZM74.8,8.53H69V6.83h5.3V4.26H69V2.66h5.62V0H65.84V11.2h9ZM58.36,11.2h3.15V2.61h3.28V0h-9.7V2.61h3.27ZM51.24,6.7H48.37l1.44-3.56ZM53,11.2h3.4L51.43,0h-3.2l-5,11.2h3.36l.74-1.84h5ZM43.11,8.53H37.27V6.83h5.29V4.26H37.27V2.66h5.61V0H34.15V11.2h9ZM28.56,8.18c3,0,4.5-1.81,4.5-4.1S31.57,0,28.56,0H23.12V11.2h3.17v-3ZM26.29,2.72h2.27a1.31,1.31,0,0,1,1.33,1.41A1.28,1.28,0,0,1,28.56,5.5H26.29ZM21.65,8.53H15.81V6.83h5.3V4.26h-5.3V2.66h5.62V0H12.69V11.2h9Zm-15-6A1.26,1.26,0,0,1,7.92,3.92a1.17,1.17,0,0,1-1.2,1.3H4.39V2.53ZM11.59,11,8.68,7.23A3.36,3.36,0,0,0,11,3.86C11,1.84,9.56,0,6.69,0H1.22V11.2H4.39V7.57h1.1L8.1,11.2h3.49Z" style="fill:#e52227"/><path d="M87.43,71.6H76.23v8.53h2.69V74.77h8.51Zm-6.7-5.78V63L84.3,64.4Zm-4.5,1.81V71l11.2-5v-3.2l-11.2-5v3.36l1.84.74v5Zm0-14.93v3.16h8.59v3.28h2.61v-9.7H84.82V52.7Zm0-4.32h11.2V45.23H76.23Zm9.71-5A5.59,5.59,0,0,0,87.75,39a5.74,5.74,0,0,0-5.93-6.13c-2.93,0-5.89,1.68-5.89,6.11,0,2.16.77,4.12,2.19,4.82h5V38.29H80.62v2.83H79.18A3.85,3.85,0,0,1,78.6,39a2.94,2.94,0,0,1,3.22-3c2.19,0,3.28,1.19,3.28,3a3.71,3.71,0,0,1-1,2.56ZM76.23,31.5h11.2V28.35H76.23Zm8.56-12v1.67a2.56,2.56,0,0,1-2.85,2.72c-1.53,0-3-.71-3-2.72V19.47Zm2.64-3.13H76.23v4.8c0,4,2.59,5.85,5.68,5.85s5.52-1.9,5.52-5.85Z" style="fill:#444545"/></g></svg>