<svg xmlns="http://www.w3.org/2000/svg" viewBox="0 0 124 124"><path d="M13.31,21.54H10.69L6.43,16.7h-3v4.84H1.23v-14l6.52,0a4.56,4.56,0,0,1,4.94,4.58,4.13,4.13,0,0,1-3.8,4.36l4.18,4.66Zm-9.84-12v5.08H7.73a2.41,2.41,0,0,0,2.68-2.5A2.49,2.49,0,0,0,7.75,9.58Z" style="fill:#e71e25"/><path d="M28.19,21.54H17.85v-14H28.13V9.72h-8V13.5h7.72v2.08H20.09v3.76h8.1Z" style="fill:#e71e25"/><path d="M35.51,17.24v4.3H33.27v-14l6.48,0c6.68,0,6.7,9.68,0,9.72Zm0-2.06h4.24c3.7,0,3.68-5.6,0-5.6H35.51Z" style="fill:#e71e25"/><path d="M59.53,21.54H49.19v-14H59.47V9.72h-8V13.5h7.72v2.08H51.43v3.76h8.1Z" style="fill:#e71e25"/><path d="M74.31,18.6H66.73l-1.32,2.94H63l6.28-14h2.44l6.28,14H75.65ZM70.53,9.9l-3,6.66h5.92Z" style="fill:#e71e25"/><path d="M84,9.56h-4.6v-2H90.87v2H86.29v12H84Z" style="fill:#e71e25"/><path d="M105.51,21.54H95.17v-14h10.28V9.72h-8V13.5h7.72v2.08H97.41v3.76h8.1Z" style="fill:#e71e25"/><path d="M122.67,21.54h-2.62l-4.26-4.84h-3v4.84h-2.24v-14l6.52,0a4.56,4.56,0,0,1,4.94,4.58,4.13,4.13,0,0,1-3.8,4.36l4.18,4.66Zm-9.84-12v5.08h4.26a2.41,2.41,0,0,0,2.68-2.5,2.49,2.49,0,0,0-2.66-2.58Z" style="fill:#e71e25"/><path d="M119.67,39.66c0,4.78-3.42,7-6.88,7a6.64,6.64,0,0,1-7.12-7v-5.3h14Zm-11.84-3.08v3.08a4.85,4.85,0,0,0,9.7,0V36.58Z" style="fill:#444"/><path d="M105.67,51.38h14V53.6h-14Z" style="fill:#444"/><path d="M116.45,69.36a5.59,5.59,0,0,0,1.5-3.78c0-3.28-2.46-5.18-5.42-5.16a4.77,4.77,0,0,0-5,5.16A5,5,0,0,0,108.73,69h2.84V65.1h2v6h-5.74a7,7,0,0,1-2.44-5.5c0-5.14,3.42-7.36,7.14-7.36,4,0,7.48,2.58,7.48,7.36a7.36,7.36,0,0,1-2.12,5.18Z" style="fill:#444"/><path d="M105.67,76.14h14v2.22h-14Z" style="fill:#444"/><path d="M117.65,87.26v-4.6h2V94.1h-2V89.52h-12V87.26Z" style="fill:#444"/><path d="M108.61,106.64V99.06l-2.94-1.32V95.36l14,6.28v2.44l-14,6.28V108Zm8.7-3.78-6.66-3v5.92Z" style="fill:#444"/><path d="M119.67,116.74H107.75v7.38h-2.08V114.5h14Z" style="fill:#444"/></svg>