<svg xmlns="http://www.w3.org/2000/svg" xmlns:xlink="http://www.w3.org/1999/xlink" viewBox="0 0 24 24"><defs><clipPath id="a"><rect x="4.91" y="6.17" width="14.17" height="11.66" style="fill:none"/></clipPath></defs><g style="clip-path:url(#a)"><path d="M19.09,7.56A6.47,6.47,0,0,1,17.64,8a4.45,4.45,0,0,0,1.11-1.51A3.76,3.76,0,0,1,17,7.09a3,3,0,0,0-5.21,2.12,2.63,2.63,0,0,0,0,.49A7.4,7.4,0,0,1,5.66,6.55a3.4,3.4,0,0,0-.17,2.09,3.53,3.53,0,0,0,1.08,1.85,2.43,2.43,0,0,1-1.33-.44,3.6,3.6,0,0,0,.73,2,3.47,3.47,0,0,0,1.8,1.15,4.45,4.45,0,0,1-1.62.12,5,5,0,0,0,2.94,2c-.81,1.06-2.92,1.34-4.18,1.2,3.21,2.78,13,1.54,13-7.3a3,3,0,0,0,0-.31,8.57,8.57,0,0,0,1.21-1.34" style="fill:#231f20"/></g></svg>