<svg xmlns="http://www.w3.org/2000/svg" xmlns:xlink="http://www.w3.org/1999/xlink" viewBox="0 0 24 22"><defs><clipPath id="a"><rect x="6.17" y="4.36" width="11.66" height="11.66" style="fill:none"/></clipPath></defs><g style="clip-path:url(#a)"><path d="M16.71,12.4a2.5,2.5,0,0,1-2.5,2.5H9.79a2.5,2.5,0,0,1-2.5-2.5V8a2.5,2.5,0,0,1,2.5-2.5h4.42A2.5,2.5,0,0,1,16.71,8Zm-2.5-8H9.79A3.62,3.62,0,0,0,6.17,8V12.4A3.63,3.63,0,0,0,9.79,16h4.42a3.63,3.63,0,0,0,3.62-3.62V8a3.62,3.62,0,0,0-3.62-3.62" style="fill:#231f20"/><path d="M12,12.21a2,2,0,1,1,2-2,2,2,0,0,1-2,2m0-5.16a3.14,3.14,0,1,0,3.14,3.14A3.15,3.15,0,0,0,12,7.05" style="fill:#231f20"/><path d="M14.88,6.37a.69.69,0,1,0,.69.69.69.69,0,0,0-.69-.69"></g></svg>