<svg xmlns="http://www.w3.org/2000/svg" xmlns:xlink="http://www.w3.org/1999/xlink" viewBox="0 0 24 22"><defs><clipPath id="a"><rect x="4.91" y="4.36" width="14.17" height="11.66" style="fill:none"/></clipPath></defs><g style="clip-path:url(#a)"><path d="M19.09,5.75a6.47,6.47,0,0,1-1.45.39,4.55,4.55,0,0,0,1.11-1.51A3.76,3.76,0,0,1,17,5.28,3,3,0,0,0,11.83,7.4a2.7,2.7,0,0,0,0,.49A7.4,7.4,0,0,1,5.66,4.74a3.4,3.4,0,0,0-.17,2.09A3.53,3.53,0,0,0,6.57,8.68a2.43,2.43,0,0,1-1.33-.44,3.55,3.55,0,0,0,.73,2,3.42,3.42,0,0,0,1.8,1.16,4.23,4.23,0,0,1-1.62.11,5,5,0,0,0,2.94,2c-.81,1.07-2.92,1.35-4.18,1.21,3.21,2.77,13,1.54,13-7.3a3,3,0,0,0,0-.31,8.57,8.57,0,0,0,1.21-1.34" style="fill:#fffafa"/></g></svg>